<?xml version="1.0" encoding="UTF-8" standalone="no"?>
<!-- Created with Inkscape (http://www.inkscape.org/) -->

<svg
   version="1.1"
   id="svg1"
   width="500"
   height="500"
   viewBox="0 0 500 500"
   xmlns="http://www.w3.org/2000/svg"
   xmlns:svg="http://www.w3.org/2000/svg">
  <defs
     id="defs1" />
  <g
     id="g29"
     transform="matrix(1.5024337,0,0,1.5024337,-904.0839,-94.166997)">
    <path
       d="m 14.563167,-33.605364 c 1.783396,0 3.529707,0.261273 5.238935,0.782132 1.707542,0.522545 2.97345,1.034976 3.796037,1.537294 l 1.200168,0.802359 -3.034133,6.00084 c -0.24273,-0.161821 -0.57817,-0.367467 -1.004634,-0.620312 -0.42815,-0.251158 -1.227138,-0.58997 -2.400336,-1.01812 -1.173198,-0.426464 -2.265486,-0.640539 -3.276863,-0.640539 -1.254108,0 -2.223345,0.268015 -2.906025,0.80236 -0.679308,0.530973 -1.01812,1.250737 -1.01812,2.157605 0,0.45512 0.158449,0.874842 0.478719,1.260851 0.323641,0.387694 0.87147,0.800673 1.645174,1.240623 0.772018,0.441634 1.451327,0.793931 2.03624,1.058575 0.588284,0.266329 1.496839,0.665823 2.723976,1.200168 2.130636,0.908554 3.947744,2.142434 5.454696,3.701641 1.510324,1.560892 2.265486,3.327432 2.265486,5.299618 0,1.8929612 -0.342183,3.5465633 -1.024863,4.9624917 -0.679308,1.4125572 -1.611461,2.5183299 -2.798144,3.3173181 -1.186683,0.80067376 -2.501474,1.39401519 -3.944372,1.78002425 -1.439527,0.38600906 -2.997049,0.5798564 -4.672564,0.5798564 -1.442898,0 -2.858827,-0.14833536 -4.2477852,-0.44500607 C 7.6891717,-0.13719845 6.5294589,-0.50129433 5.5956204,-0.93787226 4.6651532,-1.3778214 3.8257099,-1.8110281 3.0806619,-2.2391779 2.3339282,-2.6656421 1.7877844,-3.0246811 1.4422304,-3.3179805 L 0.91631413,-3.7629866 4.6786382,-10.080724 c 0.3185839,0.266329 0.7585331,0.6051405 1.3215332,1.0181196 0.5613145,0.4146648 1.55415,0.9692367 2.9801922,1.6654015 1.4243564,0.6927936 2.6852074,1.0383475 3.7825514,1.0383475 3.172354,0 4.760217,-1.0804882 4.760217,-3.2431503 0,-0.4534343 -0.114623,-0.8731563 -0.343869,-1.2608503 -0.225874,-0.386009 -0.625368,-0.772018 -1.200167,-1.159713 -0.571429,-0.386009 -1.077117,-0.691108 -1.517067,-0.916982 -0.441634,-0.229246 -1.163084,-0.5748 -2.164347,-1.038348 -0.997893,-0.466919 -1.737884,-0.822587 -2.218288,-1.065317 -2.0008419,-0.984408 -3.5465638,-2.214917 -4.6388514,-3.694899 -1.0922877,-1.483354 -1.6384315,-3.077959 -1.6384315,-4.787187 0,-2.956593 1.0922876,-5.375471 3.2768629,-7.254947 2.1879465,-1.882848 4.682678,-2.825115 7.484193,-2.825115 z m 15.398222,1.645174 c 0.825958,-0.825958 1.813737,-1.240623 2.959964,-1.240623 1.146228,0 2.132321,0.414665 2.959965,1.240623 0.825958,0.822587 1.240623,1.810366 1.240623,2.959965 0,1.146228 -0.414665,2.134006 -1.240623,2.959965 -0.827644,0.827643 -1.813737,1.240623 -2.959965,1.240623 -1.146227,0 -2.134006,-0.41298 -2.959964,-1.240623 -0.827644,-0.825959 -1.240623,-1.813737 -1.240623,-2.959965 0,-1.149599 0.412979,-2.137378 1.240623,-2.959965 z m -0.680994,11.435308 V -6.6249856e-4 h 7.079642 V -20.524882 Z m 33.196778,2.562156 c 1.923303,2.108722 2.885797,4.684363 2.885797,7.726924 0,3.039189 -0.962494,5.6064021 -2.885797,7.6999534 -1.919931,2.09018003 -4.359036,3.13527005 -7.31563,3.13527005 -2.720605,0 -4.960806,-0.97260797 -6.722288,-2.91950955 h -0.08091 V -6.6249856e-4 H 41.359612 V -34.400981 h 7.079643 v 15.838171 c 1.761482,-1.707542 4.001683,-2.562156 6.722288,-2.562156 2.956594,0 5.395699,1.055204 7.31563,3.16224 z m -5.960384,11.1858346 c 0.879898,-0.8933834 1.321533,-2.0463537 1.321533,-3.4589106 0,-1.415929 -0.461862,-2.577327 -1.382216,-3.485881 -0.916982,-0.906869 -2.056467,-1.361988 -3.418455,-1.361988 -1.331647,0 -2.457648,0.455119 -3.378001,1.361988 -0.922039,0.908554 -1.382216,2.068267 -1.382216,3.479138 0,1.3889586 0.446692,2.5385576 1.341761,3.4454261 0.893383,0.9034972 2.032869,1.3552458 3.418456,1.3552458 1.442898,0 2.602611,-0.4450061 3.479138,-1.3350183 z m 13.5592,4.2410428 c -1.919931,-2.0935513 -2.879054,-4.6607644 -2.879054,-7.6999534 0,-3.042561 0.959123,-5.618202 2.879054,-7.726924 1.923303,-2.107036 4.364094,-3.16224 7.322373,-3.16224 2.723977,0 4.964178,0.854614 6.722289,2.562156 v -1.962072 h 7.079642 V -6.6249856e-4 H 84.201561 V -2.3200881 h -0.08091 c -1.758111,1.94690158 -3.998312,2.91950955 -6.722289,2.91950955 -2.958279,0 -5.39907,-1.04509002 -7.322373,-3.13527005 z m 6.021067,-11.1858344 c -0.916982,0.908554 -1.375473,2.069952 -1.375473,3.485881 0,1.4125569 0.438264,2.5655272 1.314791,3.4589106 0.879898,0.8900122 2.042982,1.3350183 3.485881,1.3350183 1.383901,0 2.523386,-0.4517486 3.418455,-1.3552458 0.893384,-0.9068685 1.341761,-2.0564675 1.341761,-3.4454261 0,-1.410871 -0.461862,-2.570584 -1.382216,-3.479138 -0.922039,-0.906869 -2.048039,-1.361988 -3.378,-1.361988 -1.361989,0 -2.504845,0.455119 -3.425199,1.361988 z m 35.465634,-6.803199 h 8.15845 L 103.59978,10.40304 H 95.441336 L 102.52098,-3.2033577 92.798269,-20.524882 h 8.165191 l 5.71765,10.5250679 z m 0,0"
       style="fill:#00bf63;fill-opacity:1;fill-rule:nonzero;stroke:none"
       aria-label="Sibay"
       transform="matrix(2.3173841,0,0,2.3173841,628.5328,274.52107)"
       opacity="1"
       id="path29" />
  </g>
  <g
     id="g30"
     transform="matrix(1.5024337,0,0,1.5024337,-904.0839,-94.166997)">
    <path
       d="M 12.843825,-1.9844609e-4 H 2.5277755 V -29.094156 H 12.924736 c 2.926252,0 5.447953,0.579856 7.565103,1.739569 2.11715,1.159713 3.743782,2.825114 4.881582,4.996205 1.136114,2.167719 1.705856,4.760216 1.705856,7.780863 0,3.034133 -0.571428,5.6418008 -1.712599,7.8213192 -1.142856,2.1761472 -2.776231,3.8466056 -4.901809,5.0096896 -2.127264,1.16476972 -4.665821,1.74631175391 -7.619044,1.74631175391 z M 8.6769504,-5.2728462 H 12.58761 c 2.737461,0 4.814156,-0.7366199 6.230085,-2.2115453 1.415928,-1.4782967 2.123892,-3.8432345 2.123892,-7.0931275 0,-3.226294 -0.707964,-5.572689 -2.123892,-7.039187 -1.415929,-1.469868 -3.489252,-2.204802 -6.2166,-2.204802 H 8.6769504 Z M 41.450636,0.42458008 c -2.235144,0 -4.163503,-0.45511985 -5.785079,-1.36873081 -1.618203,-0.91192537 -2.863883,-2.20817407 -3.735354,-3.89043187 -0.868099,-1.6805722 -1.301305,-3.6713001 -1.301305,-5.9738694 0,-2.246944 0.433206,-4.217444 1.301305,-5.913187 0.871471,-1.694057 2.100294,-3.013905 3.688157,-3.957857 1.586177,-0.947323 3.448797,-1.422671 5.589546,-1.422671 1.923303,0 3.657815,0.407922 5.205222,1.220396 1.550779,0.814158 2.779603,2.042982 3.688157,3.688156 0.906868,1.641803 1.361988,3.69827 1.361988,6.169402 v 1.665402 H 36.60951 v 0.013485 c 0,1.6283177 0.445006,2.9110814 1.335018,3.8499768 0.890012,0.9355241 2.091866,1.4024434 3.607246,1.4024434 1.011378,0 1.884533,-0.2107037 2.622839,-0.6337966 0.741677,-0.4264641 1.262536,-1.058575 1.564264,-1.894647 l 5.596288,0.3708384 c -0.423093,2.0278117 -1.501895,3.6477013 -3.236408,4.8613542 -1.736197,1.21028167 -3.951114,1.81373688 -6.648121,1.81373688 z M 36.60951,-13.114393 h 9.156337 c -0.01011,-1.294563 -0.424779,-2.361566 -1.247366,-3.202695 -0.822587,-0.8445 -1.892961,-1.267593 -3.209437,-1.267593 -1.345132,0 -2.447534,0.436578 -3.310576,1.308048 -0.863042,0.868099 -1.32659,1.921617 -1.388958,3.16224 z M 75.753188,-21.818981 68.127402,-1.9844609e-4 H 61.310718 L 53.67819,-21.818981 h 6.391905 l 4.530971,15.6089251 h 0.229246 l 4.517486,-15.6089251 z m 0,0"
       style="fill:#000000;fill-opacity:1;fill-rule:nonzero;stroke:none"
       aria-label="Dev"
       transform="matrix(2.3173841,0,0,2.3173841,628.5328,366.00437)"
       opacity="1"
       id="path30" />
  </g>
  <g
     id="g35"
     transform="matrix(1.5024337,0,0,1.5024337,-904.0839,-94.166997)">
    <path
       d="M 0,0 H 256 V 358 H 0 Z"
       style="fill:#7ed957;fill-opacity:1;fill-rule:nonzero;stroke:none"
       transform="matrix(0.23195521,0,0,0.23195521,656.79103,86.415592)"
       opacity="1"
       id="path35" />
  </g>
  <g
     id="g40"
     transform="matrix(1.5024337,0,0,1.5024337,-904.0839,-94.166997)">
    <path
       d="M 0,0 H 256 V 660 H 0 Z"
       style="fill:#c1ff72;fill-opacity:1;fill-rule:nonzero;stroke:none"
       transform="matrix(0.12592019,0,0,0.12592019,628.5328,86.415592)"
       opacity="1"
       id="path40" />
  </g>
  <g
     id="g45"
     transform="matrix(1.5024337,0,0,1.5024337,-904.0839,-94.166997)">
    <path
       d="M 0,0 H 327 V 256 H 0 Z"
       style="fill:#00bf63;fill-opacity:1;fill-rule:nonzero;stroke:none"
       transform="matrix(0.32477831,0,0,0.32477831,712.19421,86.415592)"
       opacity="1"
       id="path45" />
  </g>
</svg>
